<svg width="118" height="73" viewBox="0 0 118 73" fill="none" xmlns="http://www.w3.org/2000/svg">
<g id="Vector">
<path d="M4.06483 32.1384C28.5627 32.4589 39.4805 38.8156 59.8376 49.8655C87.0257 64.6233 114.84 50.0718 114.954 41.3437C115.199 22.6294 91.8794 12.2857 62.3347 11.8991C38.3367 11.5851 22.2399 18.8751 4.06483 32.1384Z" fill="#154F17"/>
<path d="M4.06483 32.1384C28.5627 32.4589 39.4805 38.8156 59.8376 49.8655C87.0257 64.6233 114.84 50.0718 114.954 41.3437C115.199 22.6294 91.8794 12.2857 62.3347 11.8991C38.3367 11.5851 22.2399 18.8751 4.06483 32.1384Z" fill="url(#paint0_linear)"/>
<path d="M4.06483 32.1384L4.05829 32.6383L2.55842 32.6187L3.77009 31.7345L4.06483 32.1384ZM59.8376 49.8655L59.5991 50.305L59.5991 50.305L59.8376 49.8655ZM114.954 41.3437L115.454 41.3503L115.454 41.3503L114.954 41.3437ZM62.3347 11.8991L62.3412 11.3991L62.3347 11.8991ZM20.6727 25.151L20.8654 25.6124L20.8654 25.6124L20.6727 25.151ZM4.07137 31.6384C16.368 31.7993 25.2781 33.4762 33.6738 36.5082C42.0538 39.5344 49.9103 43.908 60.0762 49.4261L59.5991 50.305C49.4078 44.7731 41.6269 40.4434 33.3342 37.4487C25.0573 34.4597 16.2595 32.798 4.05829 32.6383L4.07137 31.6384ZM60.0762 49.4261C73.5415 56.7351 87.1561 56.7842 97.4144 53.9301C102.546 52.5024 106.822 50.3524 109.811 48.0374C111.306 46.8798 112.467 45.6895 113.255 44.5386C114.045 43.3849 114.441 42.2981 114.454 41.3372L115.454 41.3503C115.438 42.5714 114.94 43.8485 114.081 45.1036C113.219 46.3615 111.977 47.6247 110.423 48.828C107.315 51.235 102.917 53.437 97.6825 54.8935C87.2082 57.8077 73.3218 57.7536 59.5991 50.305L60.0762 49.4261ZM114.454 41.3372C114.573 32.2331 108.975 25.1123 99.5833 20.1914C90.1844 15.2668 77.054 12.5917 62.3281 12.399L62.3412 11.3991C77.16 11.593 90.4617 14.2831 100.047 19.3056C109.64 24.3318 115.58 31.7401 115.454 41.3503L114.454 41.3372ZM62.3281 12.399C38.4684 12.0868 22.4751 19.3224 4.35957 32.5423L3.77009 31.7345C22.0048 18.4277 38.2051 11.0833 62.3412 11.3991L62.3281 12.399ZM20.8654 25.6124L5.29583 32.1143L4.91048 31.1916L20.48 24.6896L20.8654 25.6124ZM114.676 40.4709C88.7301 18.1804 52.43 12.4309 20.8654 25.6124L20.48 24.6896C52.3935 11.3624 89.0949 17.1755 115.328 39.7124L114.676 40.4709Z" fill="url(#paint1_linear)"/>
</g>
<defs>
<linearGradient id="paint0_linear" x1="54.7863" y1="11.2549" x2="64.4493" y2="60.9941" gradientUnits="userSpaceOnUse">
<stop stop-color="#4FDB0D"/>
<stop offset="1" stop-color="white" stop-opacity="0"/>
</linearGradient>
<linearGradient id="paint1_linear" x1="114.464" y1="40.5836" x2="10.5905" y2="30.2236" gradientUnits="userSpaceOnUse">
<stop stop-color="#0F7013"/>
<stop offset="1" stop-color="#53A156" stop-opacity="0"/>
</linearGradient>
</defs>
</svg>
