<svg width="111" height="53" viewBox="0 0 111 53" fill="none" xmlns="http://www.w3.org/2000/svg">
<g id="Vector">
<path d="M108.546 11.8273C84.5593 16.8139 75.0542 25.1359 57.1779 39.8653C33.3033 59.5371 3.22471 50.557 1.44807 42.011C-2.36127 23.6868 18.5575 9.08576 47.4863 3.07186C70.9839 -1.81297 88.1755 2.27347 108.546 11.8273Z" fill="#154F17"/>
<path d="M108.546 11.8273C84.5593 16.8139 75.0542 25.1359 57.1779 39.8653C33.3033 59.5371 3.22471 50.557 1.44807 42.011C-2.36127 23.6868 18.5575 9.08576 47.4863 3.07186C70.9839 -1.81297 88.1755 2.27347 108.546 11.8273Z" fill="url(#paint0_linear)"/>
<path d="M108.546 11.8273L108.648 12.3168L110.117 12.0115L108.759 11.3746L108.546 11.8273ZM57.1779 39.8653L57.4959 40.2512L57.4959 40.2512L57.1779 39.8653ZM1.44807 42.011L0.95854 42.1127L0.958541 42.1127L1.44807 42.011ZM47.4863 3.07186L47.3845 2.58233L47.4863 3.07186ZM90.9109 8.13538L90.8097 8.62504L90.8097 8.62504L90.9109 8.13538ZM108.445 11.3377C96.4044 13.8407 87.9777 17.1861 80.3142 21.7635C72.6652 26.3323 65.787 32.1239 56.86 39.4794L57.4959 40.2512C66.4452 32.8773 73.2576 27.1432 80.827 22.622C88.382 18.1094 96.7014 14.8004 108.648 12.3168L108.445 11.3377ZM56.86 39.4794C45.0356 49.2223 31.6803 51.8668 21.066 51.0214C15.7565 50.5985 11.1489 49.3035 7.77317 47.601C6.08514 46.7496 4.71762 45.8027 3.7247 44.8233C2.7293 43.8414 2.1332 42.85 1.93761 41.9092L0.958541 42.1127C1.20711 43.3084 1.9396 44.4671 3.02244 45.5352C4.10776 46.6058 5.56814 47.6089 7.32286 48.4939C10.8326 50.264 15.57 51.5868 20.9866 52.0183C31.8243 52.8815 45.4456 50.1802 57.4959 40.2512L56.86 39.4794ZM1.93761 41.9092C0.0844452 32.9949 4.22158 24.9373 12.5026 18.3156C20.7899 11.6889 33.1692 6.55888 47.5881 3.5614L47.3845 2.58233C32.8746 5.59874 20.3301 10.7762 11.8781 17.5346C3.41995 24.2979 -0.997643 32.7029 0.95854 42.1127L1.93761 41.9092ZM47.5881 3.5614C70.9504 -1.29531 88.03 2.75747 108.334 12.2799L108.759 11.3746C88.3211 1.78947 71.0174 -2.33063 47.3845 2.58233L47.5881 3.5614ZM90.8097 8.62504L107.333 12.0384L107.536 11.0591L91.012 7.64572L90.8097 8.62504ZM1.55409 41.1012C22.7732 14.2717 57.3106 1.70502 90.8097 8.62504L91.012 7.64572C57.1426 0.649202 22.2234 13.3548 0.76975 40.4809L1.55409 41.1012Z" fill="url(#paint1_linear)"/>
</g>
<defs>
<linearGradient id="paint0_linear" x1="54.7732" y1="1" x2="54.7732" y2="51.6691" gradientUnits="userSpaceOnUse">
<stop stop-color="#4FDB0D"/>
<stop offset="1" stop-color="white" stop-opacity="0"/>
</linearGradient>
<linearGradient id="paint1_linear" x1="1.78423" y1="41.1713" x2="101.775" y2="11.1921" gradientUnits="userSpaceOnUse">
<stop stop-color="#0F7013"/>
<stop offset="1" stop-color="#53A156" stop-opacity="0"/>
</linearGradient>
</defs>
</svg>
