<svg width="120" height="78" viewBox="0 0 120 78" fill="none" xmlns="http://www.w3.org/2000/svg">
<g id="Vector">
<path d="M11.9484 11.4843C33.9306 22.3025 41.0566 32.7343 54.6888 51.4608C72.8951 76.4709 104.263 75.2858 108.118 67.4541C116.382 50.6616 99.7714 31.2997 73.2607 18.2528C51.7271 7.65542 34.0596 7.31971 11.9484 11.4843Z" fill="#154F17"/>
<path d="M11.9484 11.4843C33.9306 22.3025 41.0566 32.7343 54.6888 51.4608C72.8951 76.4709 104.263 75.2858 108.118 67.4541C116.382 50.6616 99.7714 31.2997 73.2607 18.2528C51.7271 7.65542 34.0596 7.31971 11.9484 11.4843Z" fill="url(#paint0_linear)"/>
<path d="M11.9484 11.4843L11.7276 11.9329L10.3818 11.2706L11.8559 10.9929L11.9484 11.4843ZM54.6888 51.4608L54.2845 51.7551L54.2845 51.7551L54.6888 51.4608ZM108.118 67.4541L108.566 67.6749L108.566 67.6749L108.118 67.4541ZM73.2607 18.2528L73.4814 17.8042L73.2607 18.2528ZM29.9472 12.3129L29.9229 12.8123L29.9229 12.8123L29.9472 12.3129ZM12.1692 11.0357C23.2031 16.4658 30.5276 21.8094 36.8053 28.1553C43.0713 34.4893 48.2854 41.815 55.093 51.1665L54.2845 51.7551C47.46 42.3802 42.2951 35.1267 36.0944 28.8586C29.9056 22.6025 22.6759 17.3209 11.7276 11.9329L12.1692 11.0357ZM55.093 51.1665C64.1101 63.5533 76.382 69.4489 86.8712 71.2806C92.1181 72.1969 96.9031 72.0934 100.597 71.2877C102.444 70.8848 104.005 70.3094 105.211 69.6089C106.42 68.9067 107.245 68.0955 107.669 67.2333L108.566 67.6749C108.027 68.7706 107.028 69.7097 105.713 70.4736C104.395 71.2393 102.73 71.8459 100.81 72.2647C96.9695 73.1024 92.0519 73.2005 86.6992 72.2657C75.9892 70.3954 63.4739 64.3785 54.2845 51.7551L55.093 51.1665ZM107.669 67.2333C111.689 59.0641 109.695 50.2287 103.33 41.749C96.9597 33.2629 86.2535 25.2043 73.0399 18.7014L73.4814 17.8042C86.7785 24.3481 97.6329 32.4939 104.13 41.1487C110.631 49.8097 112.81 59.0515 108.566 67.6749L107.669 67.2333ZM73.0399 18.7014C51.6303 8.16505 34.0797 7.82472 12.041 11.9757L11.8559 10.9929C34.0396 6.8147 51.8239 7.14578 73.4814 17.8042L73.0399 18.7014ZM29.9229 12.8123L13.0703 11.9916L13.1189 10.9928L29.9716 11.8135L29.9229 12.8123ZM108.242 66.5467C94.3944 35.2687 64.0888 14.4762 29.9229 12.8123L29.9716 11.8135C64.5151 13.4957 95.1557 34.5181 109.156 66.1419L108.242 66.5467Z" fill="url(#paint1_linear)"/>
</g>
<defs>
<linearGradient id="paint0_linear" x1="66.7219" y1="14.427" x2="54.0699" y2="63.4912" gradientUnits="userSpaceOnUse">
<stop stop-color="#4FDB0D"/>
<stop offset="1" stop-color="white" stop-opacity="0"/>
</linearGradient>
<linearGradient id="paint1_linear" x1="108.002" y1="66.5572" x2="18.6636" y2="12.56" gradientUnits="userSpaceOnUse">
<stop stop-color="#0F7013"/>
<stop offset="1" stop-color="#53A156" stop-opacity="0"/>
</linearGradient>
</defs>
</svg>
