<svg width="117" height="69" viewBox="0 0 117 69" fill="none" xmlns="http://www.w3.org/2000/svg">
<g id="Vector">
<path d="M113.365 28.1061C88.8983 29.3753 78.235 36.15 58.3211 47.9801C31.725 63.7797 3.3683 50.3164 2.91611 41.5993C1.94658 22.9085 24.8479 11.6694 54.3554 10.1388C78.3232 8.89557 94.6903 15.5567 113.365 28.1061Z" fill="#154F17"/>
<path d="M113.365 28.1061C88.8983 29.3753 78.235 36.15 58.3211 47.9801C31.725 63.7797 3.3683 50.3164 2.91611 41.5993C1.94658 22.9085 24.8479 11.6694 54.3554 10.1388C78.3232 8.89557 94.6903 15.5567 113.365 28.1061Z" fill="url(#paint0_linear)"/>
<path d="M113.365 28.1061L113.391 28.6054L114.889 28.5277L113.644 27.6911L113.365 28.1061ZM58.3211 47.9801L58.5764 48.4099L58.5764 48.4099L58.3211 47.9801ZM2.91611 41.5993L2.41678 41.6252L2.41678 41.6252L2.91611 41.5993ZM54.3554 10.1388L54.3295 9.63949L54.3554 10.1388ZM96.4994 21.7672L96.3247 22.2357L96.3247 22.2357L96.4994 21.7672ZM113.34 27.6068C101.058 28.2438 92.2199 30.2646 83.9479 33.6194C75.6914 36.9679 68.0102 41.6425 58.0657 47.5502L58.5764 48.4099C68.5458 42.4875 76.1532 37.8597 84.3237 34.5461C92.4786 31.2387 101.205 29.2375 113.391 28.6054L113.34 27.6068ZM58.0657 47.5502C44.8935 55.3753 31.2911 55.9516 20.9299 53.4969C15.7471 52.2691 11.391 50.2863 8.31445 48.0888C6.77604 46.9899 5.56898 45.8455 4.73708 44.7261C3.90311 43.6038 3.46522 42.5331 3.41543 41.5734L2.41678 41.6252C2.48004 42.8449 3.02722 44.1017 3.93444 45.3225C4.84375 46.5461 6.13402 47.7603 7.73321 48.9025C10.9319 51.1873 15.412 53.2174 20.6994 54.47C31.2786 56.9763 45.1526 56.3845 58.5764 48.4099L58.0657 47.5502ZM3.41544 41.5734C2.94378 32.4808 8.26165 25.1486 17.4559 19.8676C26.657 14.5826 39.674 11.401 54.3813 10.6381L54.3295 9.63949C39.5293 10.4072 26.3418 13.6105 16.9578 19.0004C7.56692 24.3944 1.91891 32.0271 2.41678 41.6252L3.41544 41.5734ZM54.3813 10.6381C78.2111 9.40205 94.4726 16.0128 113.087 28.5211L113.644 27.6911C94.9079 15.1005 78.4353 8.38908 54.3295 9.63949L54.3813 10.6381ZM96.3247 22.2357L112.134 28.1297L112.484 27.1927L96.6741 21.2987L96.3247 22.2357ZM3.15966 40.7164C28.2231 17.4377 64.2733 10.2866 96.3247 22.2357L96.6741 21.2987C64.2683 9.21753 27.8196 16.4477 2.47912 39.9837L3.15966 40.7164Z" fill="url(#paint1_linear)"/>
</g>
<defs>
<linearGradient id="paint0_linear" x1="61.8732" y1="9.20278" x2="54.1439" y2="59.2789" gradientUnits="userSpaceOnUse">
<stop stop-color="#4FDB0D"/>
<stop offset="1" stop-color="white" stop-opacity="0"/>
</linearGradient>
<linearGradient id="paint1_linear" x1="3.3764" y1="40.8208" x2="106.771" y2="26.4455" gradientUnits="userSpaceOnUse">
<stop stop-color="#0F7013"/>
<stop offset="1" stop-color="#53A156" stop-opacity="0"/>
</linearGradient>
</defs>
</svg>
